<mxfile host="drawio-plugin" modified="2022-09-09T20:01:42.181Z" agent="5.0 (Windows NT 6.2; Win64; x64) AppleWebKit/537.36 (KHTML, like Gecko) Chrome/98.0.4758.102 Safari/537.36" etag="BY6_EMLllSy9NGT8p_o7" version="15.5.4" type="embed"><diagram id="vMPM5QoKPJV50MO66KrA" name="Pagina-1"><mxGraphModel dx="1957" dy="1904" grid="1" gridSize="10" guides="1" tooltips="1" connect="1" arrows="1" fold="1" page="1" pageScale="1" pageWidth="827" pageHeight="1169" math="0" shadow="0"><root><mxCell id="0"/><mxCell id="1" parent="0"/><mxCell id="WXH3aKlNOm9VzishGkBi-1" value="Prodotto" style="swimlane;fontStyle=0;align=center;verticalAlign=top;childLayout=stackLayout;horizontal=1;startSize=26;horizontalStack=0;resizeParent=1;resizeLast=0;collapsible=1;marginBottom=0;rounded=0;shadow=0;strokeWidth=1;" parent="1" vertex="1"><mxGeometry x="-800" y="-640" width="200" height="250" as="geometry"><mxRectangle x="130" y="380" width="160" height="26" as="alternateBounds"/></mxGeometry></mxCell><mxCell id="WXH3aKlNOm9VzishGkBi-2" value="id: int&#10;" style="text;align=left;verticalAlign=top;spacingLeft=4;spacingRight=4;overflow=hidden;rotatable=0;points=[[0,0.5],[1,0.5]];portConstraint=eastwest;" parent="WXH3aKlNOm9VzishGkBi-1" vertex="1"><mxGeometry y="26" width="200" height="26" as="geometry"/></mxCell><mxCell id="WXH3aKlNOm9VzishGkBi-3" value="marca: string&#10;" style="text;align=left;verticalAlign=top;spacingLeft=4;spacingRight=4;overflow=hidden;rotatable=0;points=[[0,0.5],[1,0.5]];portConstraint=eastwest;rounded=0;shadow=0;html=0;" parent="WXH3aKlNOm9VzishGkBi-1" vertex="1"><mxGeometry y="52" width="200" height="26" as="geometry"/></mxCell><mxCell id="WXH3aKlNOm9VzishGkBi-4" value="descrizione: string" style="text;align=left;verticalAlign=top;spacingLeft=4;spacingRight=4;overflow=hidden;rotatable=0;points=[[0,0.5],[1,0.5]];portConstraint=eastwest;" parent="WXH3aKlNOm9VzishGkBi-1" vertex="1"><mxGeometry y="78" width="200" height="26" as="geometry"/></mxCell><mxCell id="WXH3aKlNOm9VzishGkBi-5" value="quantità: int" style="text;align=left;verticalAlign=top;spacingLeft=4;spacingRight=4;overflow=hidden;rotatable=0;points=[[0,0.5],[1,0.5]];portConstraint=eastwest;" parent="WXH3aKlNOm9VzishGkBi-1" vertex="1"><mxGeometry y="104" width="200" height="26" as="geometry"/></mxCell><mxCell id="WXH3aKlNOm9VzishGkBi-6" value="prezzo: int&#10;" style="text;align=left;verticalAlign=top;spacingLeft=4;spacingRight=4;overflow=hidden;rotatable=0;points=[[0,0.5],[1,0.5]];portConstraint=eastwest;" parent="WXH3aKlNOm9VzishGkBi-1" vertex="1"><mxGeometry y="130" width="200" height="26" as="geometry"/></mxCell><mxCell id="WXH3aKlNOm9VzishGkBi-7" value="ElencoCommenti: array" style="text;strokeColor=none;fillColor=none;align=left;verticalAlign=middle;spacingLeft=4;spacingRight=4;overflow=hidden;points=[[0,0.5],[1,0.5]];portConstraint=eastwest;rotatable=0;" parent="WXH3aKlNOm9VzishGkBi-1" vertex="1"><mxGeometry y="156" width="200" height="26" as="geometry"/></mxCell><mxCell id="WXH3aKlNOm9VzishGkBi-8" value="immagini: array" style="text;strokeColor=none;fillColor=none;align=left;verticalAlign=middle;spacingLeft=4;spacingRight=4;overflow=hidden;points=[[0,0.5],[1,0.5]];portConstraint=eastwest;rotatable=0;" parent="WXH3aKlNOm9VzishGkBi-1" vertex="1"><mxGeometry y="182" width="200" height="30" as="geometry"/></mxCell><mxCell id="WXH3aKlNOm9VzishGkBi-9" value="" style="line;html=1;strokeWidth=1;align=left;verticalAlign=middle;spacingTop=-1;spacingLeft=3;spacingRight=3;rotatable=0;labelPosition=right;points=[];portConstraint=eastwest;" parent="WXH3aKlNOm9VzishGkBi-1" vertex="1"><mxGeometry y="212" width="200" height="8" as="geometry"/></mxCell><mxCell id="WXH3aKlNOm9VzishGkBi-10" value="elimina():void" style="text;strokeColor=none;fillColor=none;align=left;verticalAlign=middle;spacingLeft=4;spacingRight=4;overflow=hidden;points=[[0,0.5],[1,0.5]];portConstraint=eastwest;rotatable=0;" parent="WXH3aKlNOm9VzishGkBi-1" vertex="1"><mxGeometry y="220" width="200" height="26" as="geometry"/></mxCell><mxCell id="WXH3aKlNOm9VzishGkBi-11" value="TelefonoUsato&#10;" style="swimlane;fontStyle=0;align=center;verticalAlign=top;childLayout=stackLayout;horizontal=1;startSize=26;horizontalStack=0;resizeParent=1;resizeLast=0;collapsible=1;marginBottom=0;rounded=0;shadow=0;strokeWidth=1;" parent="1" vertex="1"><mxGeometry x="-520" y="-1040" width="200" height="280" as="geometry"><mxRectangle x="130" y="380" width="160" height="26" as="alternateBounds"/></mxGeometry></mxCell><mxCell id="WXH3aKlNOm9VzishGkBi-12" value="condizioni: string&#10;" style="text;align=left;verticalAlign=top;spacingLeft=4;spacingRight=4;overflow=hidden;rotatable=0;points=[[0,0.5],[1,0.5]];portConstraint=eastwest;" parent="WXH3aKlNOm9VzishGkBi-11" vertex="1"><mxGeometry y="26" width="200" height="26" as="geometry"/></mxCell><mxCell id="WXH3aKlNOm9VzishGkBi-13" value="data acquisto: data" style="text;align=left;verticalAlign=top;spacingLeft=4;spacingRight=4;overflow=hidden;rotatable=0;points=[[0,0.5],[1,0.5]];portConstraint=eastwest;rounded=0;shadow=0;html=0;" parent="WXH3aKlNOm9VzishGkBi-11" vertex="1"><mxGeometry y="52" width="200" height="26" as="geometry"/></mxCell><mxCell id="WXH3aKlNOm9VzishGkBi-14" value="imei: int" style="text;align=left;verticalAlign=top;spacingLeft=4;spacingRight=4;overflow=hidden;rotatable=0;points=[[0,0.5],[1,0.5]];portConstraint=eastwest;" parent="WXH3aKlNOm9VzishGkBi-11" vertex="1"><mxGeometry y="78" width="200" height="26" as="geometry"/></mxCell><mxCell id="WXH3aKlNOm9VzishGkBi-15" value="prezzo_us: float" style="text;align=left;verticalAlign=top;spacingLeft=4;spacingRight=4;overflow=hidden;rotatable=0;points=[[0,0.5],[1,0.5]];portConstraint=eastwest;rounded=0;shadow=0;html=0;" parent="WXH3aKlNOm9VzishGkBi-11" vertex="1"><mxGeometry y="104" width="200" height="26" as="geometry"/></mxCell><mxCell id="WXH3aKlNOm9VzishGkBi-16" value="condizioniSchermo: int" style="text;align=left;verticalAlign=top;spacingLeft=4;spacingRight=4;overflow=hidden;rotatable=0;points=[[0,0.5],[1,0.5]];portConstraint=eastwest;" parent="WXH3aKlNOm9VzishGkBi-11" vertex="1"><mxGeometry y="130" width="200" height="26" as="geometry"/></mxCell><mxCell id="WXH3aKlNOm9VzishGkBi-17" value="condizioniBatteria: int" style="text;align=left;verticalAlign=top;spacingLeft=4;spacingRight=4;overflow=hidden;rotatable=0;points=[[0,0.5],[1,0.5]];portConstraint=eastwest;" parent="WXH3aKlNOm9VzishGkBi-11" vertex="1"><mxGeometry y="156" width="200" height="26" as="geometry"/></mxCell><mxCell id="WXH3aKlNOm9VzishGkBi-18" value="condizioniUsura: int" style="text;align=left;verticalAlign=top;spacingLeft=4;spacingRight=4;overflow=hidden;rotatable=0;points=[[0,0.5],[1,0.5]];portConstraint=eastwest;" parent="WXH3aKlNOm9VzishGkBi-11" vertex="1"><mxGeometry y="182" width="200" height="26" as="geometry"/></mxCell><mxCell id="WXH3aKlNOm9VzishGkBi-19" value="prezzoAcquisto: float" style="text;align=left;verticalAlign=top;spacingLeft=4;spacingRight=4;overflow=hidden;rotatable=0;points=[[0,0.5],[1,0.5]];portConstraint=eastwest;" parent="WXH3aKlNOm9VzishGkBi-11" vertex="1"><mxGeometry y="208" width="200" height="26" as="geometry"/></mxCell><mxCell id="WXH3aKlNOm9VzishGkBi-20" value="" style="line;html=1;strokeWidth=1;align=left;verticalAlign=middle;spacingTop=-1;spacingLeft=3;spacingRight=3;rotatable=0;labelPosition=right;points=[];portConstraint=eastwest;" parent="WXH3aKlNOm9VzishGkBi-11" vertex="1"><mxGeometry y="234" width="200" height="8" as="geometry"/></mxCell><mxCell id="WXH3aKlNOm9VzishGkBi-21" value="Preventivo(): float" style="text;align=left;verticalAlign=top;spacingLeft=4;spacingRight=4;overflow=hidden;rotatable=0;points=[[0,0.5],[1,0.5]];portConstraint=eastwest;" parent="WXH3aKlNOm9VzishGkBi-11" vertex="1"><mxGeometry y="242" width="200" height="26" as="geometry"/></mxCell><mxCell id="WXH3aKlNOm9VzishGkBi-22" value="Ricondizionato" style="swimlane;fontStyle=0;align=center;verticalAlign=top;childLayout=stackLayout;horizontal=1;startSize=26;horizontalStack=0;resizeParent=1;resizeLast=0;collapsible=1;marginBottom=0;rounded=0;shadow=0;strokeWidth=1;" parent="1" vertex="1"><mxGeometry x="-520" y="-680" width="200" height="110" as="geometry"><mxRectangle x="130" y="380" width="160" height="26" as="alternateBounds"/></mxGeometry></mxCell><mxCell id="WXH3aKlNOm9VzishGkBi-23" value="data_ricondizionamento: data" style="text;align=left;verticalAlign=top;spacingLeft=4;spacingRight=4;overflow=hidden;rotatable=0;points=[[0,0.5],[1,0.5]];portConstraint=eastwest;" parent="WXH3aKlNOm9VzishGkBi-22" vertex="1"><mxGeometry y="26" width="200" height="26" as="geometry"/></mxCell><mxCell id="WXH3aKlNOm9VzishGkBi-24" value="condizioni_ri: string" style="text;align=left;verticalAlign=top;spacingLeft=4;spacingRight=4;overflow=hidden;rotatable=0;points=[[0,0.5],[1,0.5]];portConstraint=eastwest;rounded=0;shadow=0;html=0;" parent="WXH3aKlNOm9VzishGkBi-22" vertex="1"><mxGeometry y="52" width="200" height="26" as="geometry"/></mxCell><mxCell id="WXH3aKlNOm9VzishGkBi-25" value="prezzo_ri: int" style="text;align=left;verticalAlign=top;spacingLeft=4;spacingRight=4;overflow=hidden;rotatable=0;points=[[0,0.5],[1,0.5]];portConstraint=eastwest;rounded=0;shadow=0;html=0;" parent="WXH3aKlNOm9VzishGkBi-22" vertex="1"><mxGeometry y="78" width="200" height="26" as="geometry"/></mxCell><mxCell id="WXH3aKlNOm9VzishGkBi-54" style="edgeStyle=orthogonalEdgeStyle;rounded=0;orthogonalLoop=1;jettySize=auto;html=1;exitX=1;exitY=1;exitDx=0;exitDy=0;entryX=0;entryY=0;entryDx=0;entryDy=0;fillColor=#6a00ff;strokeColor=#3700CC;" parent="1" source="WXH3aKlNOm9VzishGkBi-26" target="WXH3aKlNOm9VzishGkBi-48" edge="1"><mxGeometry relative="1" as="geometry"/></mxCell><mxCell id="WXH3aKlNOm9VzishGkBi-99" style="edgeStyle=orthogonalEdgeStyle;rounded=0;orthogonalLoop=1;jettySize=auto;html=1;exitX=1;exitY=0.25;exitDx=0;exitDy=0;entryX=0.25;entryY=1;entryDx=0;entryDy=0;fillColor=#008a00;strokeColor=#005700;" parent="1" source="WXH3aKlNOm9VzishGkBi-26" target="WXH3aKlNOm9VzishGkBi-59" edge="1"><mxGeometry relative="1" as="geometry"/></mxCell><mxCell id="WXH3aKlNOm9VzishGkBi-26" value="EtelNuovo" style="swimlane;fontStyle=0;align=center;verticalAlign=top;childLayout=stackLayout;horizontal=1;startSize=26;horizontalStack=0;resizeParent=1;resizeLast=0;collapsible=1;marginBottom=0;rounded=0;shadow=0;strokeWidth=1;" parent="1" vertex="1"><mxGeometry x="-520" y="-480" width="200" height="50" as="geometry"><mxRectangle x="130" y="380" width="160" height="26" as="alternateBounds"/></mxGeometry></mxCell><mxCell id="WXH3aKlNOm9VzishGkBi-27" value="Accessori&#10;" style="swimlane;fontStyle=0;align=center;verticalAlign=top;childLayout=stackLayout;horizontal=1;startSize=26;horizontalStack=0;resizeParent=1;resizeLast=0;collapsible=1;marginBottom=0;rounded=0;shadow=0;strokeWidth=1;" parent="1" vertex="1"><mxGeometry x="-520" y="-340" width="200" height="60" as="geometry"><mxRectangle x="130" y="380" width="160" height="26" as="alternateBounds"/></mxGeometry></mxCell><mxCell id="WXH3aKlNOm9VzishGkBi-29" value="proddoto_abbinato: string" style="text;align=left;verticalAlign=top;spacingLeft=4;spacingRight=4;overflow=hidden;rotatable=0;points=[[0,0.5],[1,0.5]];portConstraint=eastwest;rounded=0;shadow=0;html=0;" parent="WXH3aKlNOm9VzishGkBi-27" vertex="1"><mxGeometry y="26" width="200" height="26" as="geometry"/></mxCell><mxCell id="WXH3aKlNOm9VzishGkBi-31" style="edgeStyle=orthogonalEdgeStyle;rounded=0;orthogonalLoop=1;jettySize=auto;html=1;exitX=1;exitY=0.5;exitDx=0;exitDy=0;entryX=0;entryY=0.25;entryDx=0;entryDy=0;startArrow=block;startFill=1;endArrow=none;endFill=0;" parent="1" source="WXH3aKlNOm9VzishGkBi-5" target="WXH3aKlNOm9VzishGkBi-26" edge="1"><mxGeometry relative="1" as="geometry"/></mxCell><mxCell id="WXH3aKlNOm9VzishGkBi-33" style="edgeStyle=orthogonalEdgeStyle;rounded=0;orthogonalLoop=1;jettySize=auto;html=1;exitX=1;exitY=0.5;exitDx=0;exitDy=0;entryX=0;entryY=0.5;entryDx=0;entryDy=0;startArrow=block;startFill=1;endArrow=none;endFill=0;" parent="1" source="WXH3aKlNOm9VzishGkBi-5" target="WXH3aKlNOm9VzishGkBi-19" edge="1"><mxGeometry relative="1" as="geometry"><Array as="points"><mxPoint x="-560" y="-523"/><mxPoint x="-560" y="-819"/></Array></mxGeometry></mxCell><mxCell id="WXH3aKlNOm9VzishGkBi-34" value="Immagini" style="swimlane;fontStyle=0;align=center;verticalAlign=top;childLayout=stackLayout;horizontal=1;startSize=26;horizontalStack=0;resizeParent=1;resizeLast=0;collapsible=1;marginBottom=0;rounded=0;shadow=0;strokeWidth=1;" parent="1" vertex="1"><mxGeometry y="-1040" width="200" height="250" as="geometry"><mxRectangle x="130" y="380" width="160" height="26" as="alternateBounds"/></mxGeometry></mxCell><mxCell id="WXH3aKlNOm9VzishGkBi-35" value="id_immagine: int&#10;" style="text;align=left;verticalAlign=top;spacingLeft=4;spacingRight=4;overflow=hidden;rotatable=0;points=[[0,0.5],[1,0.5]];portConstraint=eastwest;" parent="WXH3aKlNOm9VzishGkBi-34" vertex="1"><mxGeometry y="26" width="200" height="26" as="geometry"/></mxCell><mxCell id="WXH3aKlNOm9VzishGkBi-36" value="marca: string&#10;" style="text;align=left;verticalAlign=top;spacingLeft=4;spacingRight=4;overflow=hidden;rotatable=0;points=[[0,0.5],[1,0.5]];portConstraint=eastwest;rounded=0;shadow=0;html=0;" parent="WXH3aKlNOm9VzishGkBi-34" vertex="1"><mxGeometry y="52" width="200" height="26" as="geometry"/></mxCell><mxCell id="WXH3aKlNOm9VzishGkBi-37" value="descrizione: string" style="text;align=left;verticalAlign=top;spacingLeft=4;spacingRight=4;overflow=hidden;rotatable=0;points=[[0,0.5],[1,0.5]];portConstraint=eastwest;" parent="WXH3aKlNOm9VzishGkBi-34" vertex="1"><mxGeometry y="78" width="200" height="26" as="geometry"/></mxCell><mxCell id="WXH3aKlNOm9VzishGkBi-38" value="quantità: int" style="text;align=left;verticalAlign=top;spacingLeft=4;spacingRight=4;overflow=hidden;rotatable=0;points=[[0,0.5],[1,0.5]];portConstraint=eastwest;" parent="WXH3aKlNOm9VzishGkBi-34" vertex="1"><mxGeometry y="104" width="200" height="26" as="geometry"/></mxCell><mxCell id="WXH3aKlNOm9VzishGkBi-39" value="prezzo: int&#10;" style="text;align=left;verticalAlign=top;spacingLeft=4;spacingRight=4;overflow=hidden;rotatable=0;points=[[0,0.5],[1,0.5]];portConstraint=eastwest;" parent="WXH3aKlNOm9VzishGkBi-34" vertex="1"><mxGeometry y="130" width="200" height="26" as="geometry"/></mxCell><mxCell id="WXH3aKlNOm9VzishGkBi-40" value="ElencoCommenti: array" style="text;strokeColor=none;fillColor=none;align=left;verticalAlign=middle;spacingLeft=4;spacingRight=4;overflow=hidden;points=[[0,0.5],[1,0.5]];portConstraint=eastwest;rotatable=0;" parent="WXH3aKlNOm9VzishGkBi-34" vertex="1"><mxGeometry y="156" width="200" height="26" as="geometry"/></mxCell><mxCell id="WXH3aKlNOm9VzishGkBi-41" value="immagini: array" style="text;strokeColor=none;fillColor=none;align=left;verticalAlign=middle;spacingLeft=4;spacingRight=4;overflow=hidden;points=[[0,0.5],[1,0.5]];portConstraint=eastwest;rotatable=0;" parent="WXH3aKlNOm9VzishGkBi-34" vertex="1"><mxGeometry y="182" width="200" height="30" as="geometry"/></mxCell><mxCell id="WXH3aKlNOm9VzishGkBi-42" value="" style="line;html=1;strokeWidth=1;align=left;verticalAlign=middle;spacingTop=-1;spacingLeft=3;spacingRight=3;rotatable=0;labelPosition=right;points=[];portConstraint=eastwest;" parent="WXH3aKlNOm9VzishGkBi-34" vertex="1"><mxGeometry y="212" width="200" height="8" as="geometry"/></mxCell><mxCell id="WXH3aKlNOm9VzishGkBi-43" value="elimina():void" style="text;strokeColor=none;fillColor=none;align=left;verticalAlign=middle;spacingLeft=4;spacingRight=4;overflow=hidden;points=[[0,0.5],[1,0.5]];portConstraint=eastwest;rotatable=0;" parent="WXH3aKlNOm9VzishGkBi-34" vertex="1"><mxGeometry y="220" width="200" height="26" as="geometry"/></mxCell><mxCell id="WXH3aKlNOm9VzishGkBi-48" value="Carrello" style="swimlane;fontStyle=0;childLayout=stackLayout;horizontal=1;startSize=30;horizontalStack=0;resizeParent=1;resizeParentMax=0;resizeLast=0;collapsible=1;marginBottom=0;" parent="1" vertex="1"><mxGeometry x="-120" y="-320" width="200" height="158" as="geometry"><mxRectangle x="280" y="710" width="70" height="30" as="alternateBounds"/></mxGeometry></mxCell><mxCell id="WXH3aKlNOm9VzishGkBi-49" value="id_carrello: int" style="text;strokeColor=none;fillColor=none;align=left;verticalAlign=middle;spacingLeft=4;spacingRight=4;overflow=hidden;points=[[0,0.5],[1,0.5]];portConstraint=eastwest;rotatable=0;" parent="WXH3aKlNOm9VzishGkBi-48" vertex="1"><mxGeometry y="30" width="200" height="30" as="geometry"/></mxCell><mxCell id="DQdxWPXFJA0U1AYD46z9-3" value="prodotti: array" style="text;strokeColor=none;fillColor=none;align=left;verticalAlign=middle;spacingLeft=4;spacingRight=4;overflow=hidden;points=[[0,0.5],[1,0.5]];portConstraint=eastwest;rotatable=0;" parent="WXH3aKlNOm9VzishGkBi-48" vertex="1"><mxGeometry y="60" width="200" height="30" as="geometry"/></mxCell><mxCell id="WXH3aKlNOm9VzishGkBi-50" value="User: utenti" style="text;strokeColor=none;fillColor=none;align=left;verticalAlign=middle;spacingLeft=4;spacingRight=4;overflow=hidden;points=[[0,0.5],[1,0.5]];portConstraint=eastwest;rotatable=0;" parent="WXH3aKlNOm9VzishGkBi-48" vertex="1"><mxGeometry y="90" width="200" height="30" as="geometry"/></mxCell><mxCell id="WXH3aKlNOm9VzishGkBi-51" value="" style="line;html=1;strokeWidth=1;align=left;verticalAlign=middle;spacingTop=-1;spacingLeft=3;spacingRight=3;rotatable=0;labelPosition=right;points=[];portConstraint=eastwest;" parent="WXH3aKlNOm9VzishGkBi-48" vertex="1"><mxGeometry y="120" width="200" height="8" as="geometry"/></mxCell><mxCell id="WXH3aKlNOm9VzishGkBi-52" value="CalcoloPrezzo():float" style="text;strokeColor=none;fillColor=none;align=left;verticalAlign=middle;spacingLeft=4;spacingRight=4;overflow=hidden;points=[[0,0.5],[1,0.5]];portConstraint=eastwest;rotatable=0;" parent="WXH3aKlNOm9VzishGkBi-48" vertex="1"><mxGeometry y="128" width="200" height="30" as="geometry"/></mxCell><mxCell id="WXH3aKlNOm9VzishGkBi-59" value="Commenti" style="swimlane;fontStyle=0;align=center;verticalAlign=top;childLayout=stackLayout;horizontal=1;startSize=26;horizontalStack=0;resizeParent=1;resizeLast=0;collapsible=1;marginBottom=0;rounded=0;shadow=0;strokeWidth=1;" parent="1" vertex="1"><mxGeometry x="200" y="-720" width="200" height="218" as="geometry"><mxRectangle x="130" y="380" width="160" height="26" as="alternateBounds"/></mxGeometry></mxCell><mxCell id="DQdxWPXFJA0U1AYD46z9-2" value="id_commento: int" style="text;strokeColor=none;fillColor=none;align=left;verticalAlign=middle;spacingLeft=4;spacingRight=4;overflow=hidden;points=[[0,0.5],[1,0.5]];portConstraint=eastwest;rotatable=0;" parent="WXH3aKlNOm9VzishGkBi-59" vertex="1"><mxGeometry y="26" width="200" height="30" as="geometry"/></mxCell><mxCell id="WXH3aKlNOm9VzishGkBi-60" value="rating: float" style="text;strokeColor=none;fillColor=none;align=left;verticalAlign=middle;spacingLeft=4;spacingRight=4;overflow=hidden;points=[[0,0.5],[1,0.5]];portConstraint=eastwest;rotatable=0;" parent="WXH3aKlNOm9VzishGkBi-59" vertex="1"><mxGeometry y="56" width="200" height="30" as="geometry"/></mxCell><mxCell id="WXH3aKlNOm9VzishGkBi-61" value="immagini: array" style="text;strokeColor=none;fillColor=none;align=left;verticalAlign=middle;spacingLeft=4;spacingRight=4;overflow=hidden;points=[[0,0.5],[1,0.5]];portConstraint=eastwest;rotatable=0;" parent="WXH3aKlNOm9VzishGkBi-59" vertex="1"><mxGeometry y="86" width="200" height="30" as="geometry"/></mxCell><mxCell id="WXH3aKlNOm9VzishGkBi-62" value="User: utenti textstring" style="text;strokeColor=none;fillColor=none;align=left;verticalAlign=middle;spacingLeft=4;spacingRight=4;overflow=hidden;points=[[0,0.5],[1,0.5]];portConstraint=eastwest;rotatable=0;" parent="WXH3aKlNOm9VzishGkBi-59" vertex="1"><mxGeometry y="116" width="200" height="26" as="geometry"/></mxCell><mxCell id="WXH3aKlNOm9VzishGkBi-63" value="testo: string" style="text;strokeColor=none;fillColor=none;align=left;verticalAlign=middle;spacingLeft=4;spacingRight=4;overflow=hidden;points=[[0,0.5],[1,0.5]];portConstraint=eastwest;rotatable=0;" parent="WXH3aKlNOm9VzishGkBi-59" vertex="1"><mxGeometry y="142" width="200" height="26" as="geometry"/></mxCell><mxCell id="WXH3aKlNOm9VzishGkBi-64" value="" style="line;html=1;strokeWidth=1;align=left;verticalAlign=middle;spacingTop=-1;spacingLeft=3;spacingRight=3;rotatable=0;labelPosition=right;points=[];portConstraint=eastwest;" parent="WXH3aKlNOm9VzishGkBi-59" vertex="1"><mxGeometry y="168" width="200" height="24" as="geometry"/></mxCell><mxCell id="WXH3aKlNOm9VzishGkBi-65" value="elimina():void" style="text;strokeColor=none;fillColor=none;align=left;verticalAlign=middle;spacingLeft=4;spacingRight=4;overflow=hidden;points=[[0,0.5],[1,0.5]];portConstraint=eastwest;rotatable=0;" parent="WXH3aKlNOm9VzishGkBi-59" vertex="1"><mxGeometry y="192" width="200" height="26" as="geometry"/></mxCell><mxCell id="WXH3aKlNOm9VzishGkBi-66" style="edgeStyle=orthogonalEdgeStyle;rounded=0;orthogonalLoop=1;jettySize=auto;html=1;exitX=1;exitY=0.5;exitDx=0;exitDy=0;fillColor=#a20025;strokeColor=#6F0000;" parent="1" source="WXH3aKlNOm9VzishGkBi-43" target="WXH3aKlNOm9VzishGkBi-59" edge="1"><mxGeometry relative="1" as="geometry"/></mxCell><mxCell id="WXH3aKlNOm9VzishGkBi-74" style="edgeStyle=orthogonalEdgeStyle;rounded=0;orthogonalLoop=1;jettySize=auto;html=1;exitX=0.5;exitY=0;exitDx=0;exitDy=0;entryX=0.5;entryY=1;entryDx=0;entryDy=0;" parent="1" source="WXH3aKlNOm9VzishGkBi-68" target="WXH3aKlNOm9VzishGkBi-59" edge="1"><mxGeometry relative="1" as="geometry"/></mxCell><mxCell id="WXH3aKlNOm9VzishGkBi-68" value="Utenti" style="swimlane;fontStyle=0;align=center;verticalAlign=top;childLayout=stackLayout;horizontal=1;startSize=26;horizontalStack=0;resizeParent=1;resizeLast=0;collapsible=1;marginBottom=0;rounded=0;shadow=0;strokeWidth=1;" parent="1" vertex="1"><mxGeometry x="200" y="-440" width="200" height="160" as="geometry"><mxRectangle x="340" y="380" width="170" height="26" as="alternateBounds"/></mxGeometry></mxCell><mxCell id="WXH3aKlNOm9VzishGkBi-69" value="id_utente: int" style="text;align=left;verticalAlign=top;spacingLeft=4;spacingRight=4;overflow=hidden;rotatable=0;points=[[0,0.5],[1,0.5]];portConstraint=eastwest;" parent="WXH3aKlNOm9VzishGkBi-68" vertex="1"><mxGeometry y="26" width="200" height="26" as="geometry"/></mxCell><mxCell id="WXH3aKlNOm9VzishGkBi-70" value="nome: string" style="text;align=left;verticalAlign=top;spacingLeft=4;spacingRight=4;overflow=hidden;rotatable=0;points=[[0,0.5],[1,0.5]];portConstraint=eastwest;rounded=0;shadow=0;html=0;" parent="WXH3aKlNOm9VzishGkBi-68" vertex="1"><mxGeometry y="52" width="200" height="26" as="geometry"/></mxCell><mxCell id="WXH3aKlNOm9VzishGkBi-71" value="cognome: string" style="text;align=left;verticalAlign=top;spacingLeft=4;spacingRight=4;overflow=hidden;rotatable=0;points=[[0,0.5],[1,0.5]];portConstraint=eastwest;" parent="WXH3aKlNOm9VzishGkBi-68" vertex="1"><mxGeometry y="78" width="200" height="26" as="geometry"/></mxCell><mxCell id="WXH3aKlNOm9VzishGkBi-72" value="email andress: string" style="text;align=left;verticalAlign=top;spacingLeft=4;spacingRight=4;overflow=hidden;rotatable=0;points=[[0,0.5],[1,0.5]];portConstraint=eastwest;" parent="WXH3aKlNOm9VzishGkBi-68" vertex="1"><mxGeometry y="104" width="200" height="26" as="geometry"/></mxCell><mxCell id="WXH3aKlNOm9VzishGkBi-73" value="password: string" style="text;align=left;verticalAlign=top;spacingLeft=4;spacingRight=4;overflow=hidden;rotatable=0;points=[[0,0.5],[1,0.5]];portConstraint=eastwest;" parent="WXH3aKlNOm9VzishGkBi-68" vertex="1"><mxGeometry y="130" width="200" height="26" as="geometry"/></mxCell><mxCell id="WXH3aKlNOm9VzishGkBi-76" style="edgeStyle=orthogonalEdgeStyle;rounded=0;orthogonalLoop=1;jettySize=auto;html=1;exitX=0;exitY=0.5;exitDx=0;exitDy=0;" parent="1" source="WXH3aKlNOm9VzishGkBi-73" target="WXH3aKlNOm9VzishGkBi-49" edge="1"><mxGeometry relative="1" as="geometry"/></mxCell><mxCell id="WXH3aKlNOm9VzishGkBi-79" style="edgeStyle=orthogonalEdgeStyle;rounded=0;orthogonalLoop=1;jettySize=auto;html=1;exitX=0.5;exitY=0;exitDx=0;exitDy=0;entryX=0.5;entryY=1;entryDx=0;entryDy=0;endArrow=block;endFill=1;" parent="1" source="WXH3aKlNOm9VzishGkBi-77" target="WXH3aKlNOm9VzishGkBi-68" edge="1"><mxGeometry relative="1" as="geometry"/></mxCell><mxCell id="WXH3aKlNOm9VzishGkBi-77" value="Admin" style="swimlane;fontStyle=0;align=center;verticalAlign=top;childLayout=stackLayout;horizontal=1;startSize=26;horizontalStack=0;resizeParent=1;resizeLast=0;collapsible=1;marginBottom=0;rounded=0;shadow=0;strokeWidth=1;" parent="1" vertex="1"><mxGeometry x="200" y="-240" width="200" height="60" as="geometry"><mxRectangle x="340" y="380" width="170" height="26" as="alternateBounds"/></mxGeometry></mxCell><mxCell id="WXH3aKlNOm9VzishGkBi-78" value="privilegi: int&#10;" style="text;align=left;verticalAlign=top;spacingLeft=4;spacingRight=4;overflow=hidden;rotatable=0;points=[[0,0.5],[1,0.5]];portConstraint=eastwest;" parent="WXH3aKlNOm9VzishGkBi-77" vertex="1"><mxGeometry y="26" width="200" height="34" as="geometry"/></mxCell><mxCell id="WXH3aKlNOm9VzishGkBi-80" value="Ordine" style="swimlane;fontStyle=0;childLayout=stackLayout;horizontal=1;startSize=30;horizontalStack=0;resizeParent=1;resizeParentMax=0;resizeLast=0;collapsible=1;marginBottom=0;" parent="1" vertex="1"><mxGeometry x="-121" y="-120" width="201" height="160" as="geometry"/></mxCell><mxCell id="DQdxWPXFJA0U1AYD46z9-1" value="id_ordine: int" style="text;align=left;verticalAlign=top;spacingLeft=4;spacingRight=4;overflow=hidden;rotatable=0;points=[[0,0.5],[1,0.5]];portConstraint=eastwest;" parent="WXH3aKlNOm9VzishGkBi-80" vertex="1"><mxGeometry y="30" width="201" height="26" as="geometry"/></mxCell><mxCell id="WXH3aKlNOm9VzishGkBi-81" value="prezzoTotale: float" style="text;align=left;verticalAlign=top;spacingLeft=4;spacingRight=4;overflow=hidden;rotatable=0;points=[[0,0.5],[1,0.5]];portConstraint=eastwest;" parent="WXH3aKlNOm9VzishGkBi-80" vertex="1"><mxGeometry y="56" width="201" height="26" as="geometry"/></mxCell><mxCell id="WXH3aKlNOm9VzishGkBi-82" value="indirizzoSpedizione: string" style="text;align=left;verticalAlign=top;spacingLeft=4;spacingRight=4;overflow=hidden;rotatable=0;points=[[0,0.5],[1,0.5]];portConstraint=eastwest;" parent="WXH3aKlNOm9VzishGkBi-80" vertex="1"><mxGeometry y="82" width="201" height="26" as="geometry"/></mxCell><mxCell id="WXH3aKlNOm9VzishGkBi-83" value="dataOrdine:data" style="text;align=left;verticalAlign=top;spacingLeft=4;spacingRight=4;overflow=hidden;rotatable=0;points=[[0,0.5],[1,0.5]];portConstraint=eastwest;" parent="WXH3aKlNOm9VzishGkBi-80" vertex="1"><mxGeometry y="108" width="201" height="26" as="geometry"/></mxCell><mxCell id="WXH3aKlNOm9VzishGkBi-84" value="Codici_promozionale : codi..&#10;" style="text;align=left;verticalAlign=top;spacingLeft=4;spacingRight=4;overflow=hidden;rotatable=0;points=[[0,0.5],[1,0.5]];portConstraint=eastwest;" parent="WXH3aKlNOm9VzishGkBi-80" vertex="1"><mxGeometry y="134" width="201" height="26" as="geometry"/></mxCell><mxCell id="WXH3aKlNOm9VzishGkBi-86" value="Codici_promozionale" style="swimlane;fontStyle=0;align=center;verticalAlign=top;childLayout=stackLayout;horizontal=1;startSize=26;horizontalStack=0;resizeParent=1;resizeLast=0;collapsible=1;marginBottom=0;rounded=0;shadow=0;strokeWidth=1;" parent="1" vertex="1"><mxGeometry x="-400" y="-173" width="200" height="240" as="geometry"><mxRectangle x="130" y="380" width="160" height="26" as="alternateBounds"/></mxGeometry></mxCell><mxCell id="WXH3aKlNOm9VzishGkBi-87" value="id_codice: int" style="text;strokeColor=none;fillColor=none;align=left;verticalAlign=middle;spacingLeft=4;spacingRight=4;overflow=hidden;points=[[0,0.5],[1,0.5]];portConstraint=eastwest;rotatable=0;" parent="WXH3aKlNOm9VzishGkBi-86" vertex="1"><mxGeometry y="26" width="200" height="30" as="geometry"/></mxCell><mxCell id="WXH3aKlNOm9VzishGkBi-88" value="codice: string" style="text;strokeColor=none;fillColor=none;align=left;verticalAlign=middle;spacingLeft=4;spacingRight=4;overflow=hidden;points=[[0,0.5],[1,0.5]];portConstraint=eastwest;rotatable=0;" parent="WXH3aKlNOm9VzishGkBi-86" vertex="1"><mxGeometry y="56" width="200" height="30" as="geometry"/></mxCell><mxCell id="WXH3aKlNOm9VzishGkBi-89" value="data scadenza: data" style="text;strokeColor=none;fillColor=none;align=left;verticalAlign=middle;spacingLeft=4;spacingRight=4;overflow=hidden;points=[[0,0.5],[1,0.5]];portConstraint=eastwest;rotatable=0;" parent="WXH3aKlNOm9VzishGkBi-86" vertex="1"><mxGeometry y="86" width="200" height="30" as="geometry"/></mxCell><mxCell id="WXH3aKlNOm9VzishGkBi-90" value="utilizzi: int" style="text;strokeColor=none;fillColor=none;align=left;verticalAlign=middle;spacingLeft=4;spacingRight=4;overflow=hidden;points=[[0,0.5],[1,0.5]];portConstraint=eastwest;rotatable=0;" parent="WXH3aKlNOm9VzishGkBi-86" vertex="1"><mxGeometry y="116" width="200" height="30" as="geometry"/></mxCell><mxCell id="WXH3aKlNOm9VzishGkBi-91" value="toggle: boolean" style="text;strokeColor=none;fillColor=none;align=left;verticalAlign=middle;spacingLeft=4;spacingRight=4;overflow=hidden;points=[[0,0.5],[1,0.5]];portConstraint=eastwest;rotatable=0;" parent="WXH3aKlNOm9VzishGkBi-86" vertex="1"><mxGeometry y="146" width="200" height="30" as="geometry"/></mxCell><mxCell id="WXH3aKlNOm9VzishGkBi-92" value="" style="line;html=1;strokeWidth=1;align=left;verticalAlign=middle;spacingTop=-1;spacingLeft=3;spacingRight=3;rotatable=0;labelPosition=right;points=[];portConstraint=eastwest;" parent="WXH3aKlNOm9VzishGkBi-86" vertex="1"><mxGeometry y="176" width="200" height="24" as="geometry"/></mxCell><mxCell id="WXH3aKlNOm9VzishGkBi-93" value="elimina():void" style="text;strokeColor=none;fillColor=none;align=left;verticalAlign=middle;spacingLeft=4;spacingRight=4;overflow=hidden;points=[[0,0.5],[1,0.5]];portConstraint=eastwest;rotatable=0;" parent="WXH3aKlNOm9VzishGkBi-86" vertex="1"><mxGeometry y="200" width="200" height="26" as="geometry"/></mxCell><mxCell id="WXH3aKlNOm9VzishGkBi-96" style="edgeStyle=orthogonalEdgeStyle;rounded=0;orthogonalLoop=1;jettySize=auto;html=1;exitX=0;exitY=0.5;exitDx=0;exitDy=0;entryX=1;entryY=0.5;entryDx=0;entryDy=0;fillColor=#a20025;strokeColor=#6F0000;" parent="1" source="WXH3aKlNOm9VzishGkBi-43" target="WXH3aKlNOm9VzishGkBi-24" edge="1"><mxGeometry relative="1" as="geometry"/></mxCell><mxCell id="WXH3aKlNOm9VzishGkBi-98" style="edgeStyle=orthogonalEdgeStyle;rounded=0;orthogonalLoop=1;jettySize=auto;html=1;exitX=0;exitY=0.5;exitDx=0;exitDy=0;entryX=1;entryY=0.75;entryDx=0;entryDy=0;fillColor=#a20025;strokeColor=#6F0000;" parent="1" source="WXH3aKlNOm9VzishGkBi-40" target="WXH3aKlNOm9VzishGkBi-26" edge="1"><mxGeometry relative="1" as="geometry"><Array as="points"><mxPoint x="-180" y="-871"/><mxPoint x="-180" y="-442"/></Array></mxGeometry></mxCell><mxCell id="WXH3aKlNOm9VzishGkBi-100" style="edgeStyle=orthogonalEdgeStyle;rounded=0;orthogonalLoop=1;jettySize=auto;html=1;exitX=0;exitY=0.5;exitDx=0;exitDy=0;entryX=1;entryY=0.5;entryDx=0;entryDy=0;fillColor=#a20025;strokeColor=#6F0000;" parent="1" source="WXH3aKlNOm9VzishGkBi-35" target="WXH3aKlNOm9VzishGkBi-12" edge="1"><mxGeometry relative="1" as="geometry"/></mxCell><mxCell id="WXH3aKlNOm9VzishGkBi-103" style="edgeStyle=orthogonalEdgeStyle;rounded=0;orthogonalLoop=1;jettySize=auto;html=1;exitX=1;exitY=0.5;exitDx=0;exitDy=0;entryX=0.25;entryY=0;entryDx=0;entryDy=0;fillColor=#6a00ff;strokeColor=#3700CC;" parent="1" source="WXH3aKlNOm9VzishGkBi-25" target="WXH3aKlNOm9VzishGkBi-48" edge="1"><mxGeometry relative="1" as="geometry"/></mxCell><mxCell id="WXH3aKlNOm9VzishGkBi-104" style="edgeStyle=orthogonalEdgeStyle;rounded=0;orthogonalLoop=1;jettySize=auto;html=1;exitX=1;exitY=0.5;exitDx=0;exitDy=0;entryX=0;entryY=0.5;entryDx=0;entryDy=0;" parent="1" source="WXH3aKlNOm9VzishGkBi-29" target="WXH3aKlNOm9VzishGkBi-49" edge="1"><mxGeometry relative="1" as="geometry"/></mxCell><mxCell id="WXH3aKlNOm9VzishGkBi-105" style="edgeStyle=orthogonalEdgeStyle;rounded=0;orthogonalLoop=1;jettySize=auto;html=1;exitX=0;exitY=0.5;exitDx=0;exitDy=0;entryX=0.993;entryY=-0.049;entryDx=0;entryDy=0;entryPerimeter=0;fillColor=#a20025;strokeColor=#6F0000;" parent="1" source="WXH3aKlNOm9VzishGkBi-41" target="WXH3aKlNOm9VzishGkBi-29" edge="1"><mxGeometry relative="1" as="geometry"><Array as="points"><mxPoint x="-170" y="-843"/><mxPoint x="-170" y="-289"/></Array></mxGeometry></mxCell><mxCell id="WXH3aKlNOm9VzishGkBi-107" style="edgeStyle=orthogonalEdgeStyle;rounded=0;orthogonalLoop=1;jettySize=auto;html=1;exitX=1;exitY=0.5;exitDx=0;exitDy=0;entryX=1;entryY=0.5;entryDx=0;entryDy=0;" parent="1" source="WXH3aKlNOm9VzishGkBi-52" target="WXH3aKlNOm9VzishGkBi-83" edge="1"><mxGeometry relative="1" as="geometry"/></mxCell><mxCell id="WXH3aKlNOm9VzishGkBi-109" style="edgeStyle=orthogonalEdgeStyle;rounded=0;orthogonalLoop=1;jettySize=auto;html=1;exitX=1;exitY=0.5;exitDx=0;exitDy=0;entryX=0;entryY=0.5;entryDx=0;entryDy=0;" parent="1" source="WXH3aKlNOm9VzishGkBi-90" target="WXH3aKlNOm9VzishGkBi-83" edge="1"><mxGeometry relative="1" as="geometry"/></mxCell><mxCell id="WXH3aKlNOm9VzishGkBi-110" style="edgeStyle=orthogonalEdgeStyle;rounded=0;orthogonalLoop=1;jettySize=auto;html=1;exitX=1;exitY=0.5;exitDx=0;exitDy=0;entryX=0.5;entryY=0;entryDx=0;entryDy=0;fillColor=#6a00ff;strokeColor=#3700CC;" parent="1" source="WXH3aKlNOm9VzishGkBi-21" target="WXH3aKlNOm9VzishGkBi-48" edge="1"><mxGeometry relative="1" as="geometry"/></mxCell><mxCell id="DQdxWPXFJA0U1AYD46z9-4" style="edgeStyle=orthogonalEdgeStyle;rounded=0;orthogonalLoop=1;jettySize=auto;html=1;exitX=1;exitY=0.5;exitDx=0;exitDy=0;entryX=0;entryY=0.5;entryDx=0;entryDy=0;startArrow=block;startFill=1;endArrow=none;endFill=0;" parent="1" source="WXH3aKlNOm9VzishGkBi-5" target="WXH3aKlNOm9VzishGkBi-29" edge="1"><mxGeometry relative="1" as="geometry"/></mxCell><mxCell id="3" style="edgeStyle=orthogonalEdgeStyle;rounded=0;orthogonalLoop=1;jettySize=auto;html=1;exitX=0;exitY=0.5;exitDx=0;exitDy=0;entryX=1;entryY=0.5;entryDx=0;entryDy=0;startArrow=none;startFill=0;endArrow=block;endFill=1;" edge="1" parent="1" source="WXH3aKlNOm9VzishGkBi-24" target="WXH3aKlNOm9VzishGkBi-5"><mxGeometry relative="1" as="geometry"/></mxCell></root></mxGraphModel></diagram></mxfile>